<svg width="73" height="50" viewBox="0 0 73 50" fill="none" xmlns="http://www.w3.org/2000/svg">
<ellipse cx="47.6861" cy="24.9229" rx="22.5" ry="22.5" stroke="#25C9D0" stroke-width="4.84559"/>
<ellipse cx="24.7364" cy="24.9229" rx="22.5" ry="22.5" stroke="#FF5168" stroke-width="4.47285"/>
<path d="M36.2109 5.57275L37.3308 3.63689L36.2109 2.98908L35.0911 3.63691L36.2109 5.57275ZM47.4609 25.062H49.6974V25.062L47.4609 25.062ZM36.2109 44.5513L35.0911 46.4871L36.2109 47.1349L37.3308 46.4871L36.2109 44.5513ZM24.9609 25.062L22.7245 25.062V25.062H24.9609ZM36.2109 5.57275L35.0911 7.50861C41.1537 11.0157 45.2245 17.5646 45.2245 25.062L47.4609 25.062L49.6974 25.062C49.6973 15.9032 44.7186 7.91052 37.3308 3.63689L36.2109 5.57275ZM47.4609 25.062H45.2245C45.2245 32.5594 41.1537 39.1083 35.0911 42.6154L36.2109 44.5513L37.3308 46.4871C44.7185 42.2135 49.6974 34.2208 49.6974 25.062H47.4609ZM36.2109 44.5513L37.3308 42.6154C31.2683 39.1083 27.1974 32.5593 27.1974 25.062H24.9609H22.7245C22.7245 34.2207 27.7036 42.2134 35.0911 46.4871L36.2109 44.5513ZM24.9609 25.062L27.1974 25.062C27.1974 17.5648 31.2683 11.0157 37.3308 7.50859L36.2109 5.57275L35.0911 3.63691C27.7035 7.91057 22.7246 15.9033 22.7245 25.062L24.9609 25.062Z" fill="black"/>
</svg>
